<?xml version="1.0" standalone="no"?>
<!DOCTYPE svg PUBLIC "-//W3C//DTD SVG 20010904//EN"
 "http://www.w3.org/TR/2001/REC-SVG-20010904/DTD/svg10.dtd">
<svg version="1.0" xmlns="http://www.w3.org/2000/svg"
 width="2768.000000pt" height="2768.000000pt" viewBox="0 0 2768.000000 2768.000000"
 preserveAspectRatio="xMidYMid meet">
<metadata>
Created by potrace 1.14, written by Peter Selinger 2001-2017
</metadata>
<g transform="translate(0.000000,2768.000000) scale(0.100000,-0.100000)"
fill="#000000" stroke="none">
<path d="M11019 19901 c-35 -26 -235 -191 -444 -365 -209 -175 -398 -332 -419
-349 -22 -18 -44 -37 -50 -42 -6 -6 -184 -155 -396 -331 -466 -389 -584 -487
-630 -528 -20 -17 -58 -49 -84 -71 -43 -35 -101 -83 -301 -250 -49 -41 -60
-50 -179 -149 -39 -32 -93 -78 -121 -101 -62 -53 -271 -228 -705 -591 -287
-239 -676 -566 -760 -638 -14 -11 -77 -64 -140 -116 -63 -52 -117 -97 -120
-100 -3 -3 -72 -61 -155 -130 -82 -69 -159 -132 -170 -142 -11 -9 -99 -83
-195 -163 -96 -81 -199 -168 -228 -193 -29 -25 -65 -54 -80 -66 -15 -11 -29
-23 -32 -26 -3 -3 -99 -85 -215 -181 -175 -146 -660 -552 -730 -611 -20 -17
-502 -421 -995 -834 -151 -126 -385 -322 -519 -435 -134 -112 -359 -300 -500
-418 -141 -117 -278 -233 -306 -256 -80 -68 -507 -426 -560 -470 -26 -22 -53
-45 -59 -50 -6 -6 -121 -102 -256 -215 -135 -112 -274 -229 -310 -260 -36 -30
-87 -73 -114 -95 -27 -22 -54 -45 -60 -50 -6 -6 -108 -91 -226 -190 -118 -99
-217 -182 -220 -185 -3 -3 -30 -25 -60 -50 -30 -25 -57 -47 -60 -50 -3 -3 -90
-77 -195 -165 -296 -247 -314 -266 -210 -219 32 14 942 400 1155 489 69 29
334 141 590 250 256 108 539 228 630 267 91 38 179 75 195 83 17 7 71 30 120
50 50 21 108 45 130 55 22 10 175 75 340 145 165 69 314 133 330 140 17 7 91
39 165 70 74 31 149 63 165 70 17 7 154 66 305 130 151 64 284 120 295 125 11
5 265 114 565 241 300 127 784 332 1075 456 1006 428 1322 562 1890 803 314
133 584 247 600 255 17 7 287 122 600 255 314 133 764 324 1000 425 578 246
726 307 730 303 2 -2 234 -395 515 -873 281 -479 586 -997 678 -1153 92 -156
168 -279 170 -274 3 11 -43 243 -443 2247 -162 809 -296 1481 -299 1495 -3 14
-93 464 -201 1000 -107 536 -197 984 -199 995 -8 39 -156 771 -180 885 -25
121 -45 200 -50 200 -2 0 -32 -22 -67 -49z"/>
<path d="M16586 19933 c-4 -17 -31 -149 -42 -211 -3 -15 -18 -90 -34 -167 -15
-77 -30 -151 -33 -165 -2 -14 -32 -160 -65 -325 -34 -165 -192 -952 -352
-1750 -160 -797 -293 -1457 -295 -1465 -4 -21 -66 -330 -72 -360 -2 -14 -72
-360 -154 -770 -82 -410 -151 -756 -154 -770 -2 -14 -14 -70 -25 -125 -11 -55
-23 -111 -25 -125 -8 -42 -105 -534 -109 -552 -2 -10 -3 -18 -1 -18 10 0 84
121 335 550 150 256 280 476 289 490 8 14 34 57 56 95 23 39 81 138 130 220
135 229 213 362 239 408 13 23 56 98 97 167 41 69 106 178 144 243 38 64 75
117 83 117 17 0 153 -53 357 -140 94 -40 287 -121 430 -182 143 -60 278 -118
300 -128 22 -10 101 -43 175 -75 74 -31 374 -158 665 -282 292 -124 692 -294
890 -378 198 -84 738 -314 1200 -510 741 -315 1527 -649 2730 -1160 475 -202
921 -391 1525 -647 272 -115 509 -215 525 -223 84 -37 2042 -865 2103 -889 24
-9 41 -12 38 -7 -8 12 -299 257 -1341 1131 -181 151 -333 280 -339 285 -6 6
-54 46 -106 89 -52 43 -106 88 -120 100 -14 11 -66 55 -115 96 -50 41 -92 77
-95 80 -9 9 -115 98 -400 336 -401 335 -1201 1005 -1545 1294 -121 102 -229
192 -240 201 -11 10 -95 79 -186 156 -91 76 -187 156 -214 178 -47 39 -161
135 -260 220 -27 23 -66 56 -85 71 -19 16 -44 37 -55 46 -99 83 -711 594 -905
756 -135 113 -267 224 -295 247 -92 78 -379 319 -470 395 -49 41 -99 82 -110
92 -11 9 -112 94 -225 188 -181 151 -519 435 -575 482 -101 84 -533 446 -750
627 -148 124 -315 263 -370 309 -55 47 -120 102 -145 122 -25 21 -119 100
-210 176 -150 126 -1445 1206 -1549 1292 -115 96 -226 182 -232 182 -4 0 -10
-8 -13 -17z"/>
<path d="M12474 13065 c4 -16 64 -314 91 -455 3 -14 7 -34 9 -45 2 -11 167
-834 366 -1830 199 -995 481 -2401 626 -3124 145 -723 264 -1318 264 -1323 0
-4 4 -8 9 -8 12 0 21 40 116 510 90 443 913 4551 920 4595 3 17 44 224 91 460
102 509 91 453 108 545 13 63 101 513 111 560 13 67 16 102 7 96 -5 -3 -49
-72 -97 -153 -49 -82 -124 -209 -169 -283 -44 -74 -90 -151 -101 -171 -11 -19
-45 -77 -75 -128 -30 -51 -64 -109 -76 -129 -11 -20 -191 -327 -400 -682 -209
-355 -391 -664 -404 -688 -13 -23 -27 -39 -31 -35 -6 7 -269 453 -329 558 -10
16 -106 181 -215 365 -109 184 -242 409 -295 500 -54 91 -157 266 -230 390
-73 124 -165 279 -203 345 -71 123 -105 170 -93 130z"/>
</g>
</svg>
